<mxfile host="Electron" agent="Mozilla/5.0 (X11; Linux x86_64) AppleWebKit/537.36 (KHTML, like Gecko) draw.io/26.0.9 Chrome/128.0.6613.186 Electron/32.2.5 Safari/537.36" version="26.0.9">
  <diagram id="R2lEEEUBdFMjLlhIrx00" name="Page-1">
    <mxGraphModel dx="1366" dy="1903" grid="1" gridSize="10" guides="1" tooltips="1" connect="1" arrows="1" fold="1" page="1" pageScale="1" pageWidth="850" pageHeight="1100" math="0" shadow="0" extFonts="Permanent Marker^https://fonts.googleapis.com/css?family=Permanent+Marker">
      <root>
        <mxCell id="0" />
        <mxCell id="1" parent="0" />
        <mxCell id="Nwp9M4HmOzaoz7ELcoco-1" value="User" style="whiteSpace=wrap;html=1;align=center;" parent="1" vertex="1">
          <mxGeometry x="635" y="410" width="100" height="40" as="geometry" />
        </mxCell>
        <mxCell id="Nwp9M4HmOzaoz7ELcoco-2" value="Post" style="shape=ext;margin=3;double=1;whiteSpace=wrap;html=1;align=center;" parent="1" vertex="1">
          <mxGeometry x="1140" y="410" width="100" height="40" as="geometry" />
        </mxCell>
        <mxCell id="Nwp9M4HmOzaoz7ELcoco-3" value="Comment" style="shape=ext;margin=3;double=1;whiteSpace=wrap;html=1;align=center;" parent="1" vertex="1">
          <mxGeometry x="1140" y="680.07" width="100" height="40" as="geometry" />
        </mxCell>
        <mxCell id="Nwp9M4HmOzaoz7ELcoco-20" style="edgeStyle=orthogonalEdgeStyle;rounded=0;orthogonalLoop=1;jettySize=auto;html=1;entryX=0.25;entryY=0;entryDx=0;entryDy=0;" parent="1" source="Nwp9M4HmOzaoz7ELcoco-4" target="Nwp9M4HmOzaoz7ELcoco-1" edge="1">
          <mxGeometry relative="1" as="geometry" />
        </mxCell>
        <mxCell id="Nwp9M4HmOzaoz7ELcoco-4" value="UserID" style="ellipse;whiteSpace=wrap;html=1;align=center;fontStyle=4;" parent="1" vertex="1">
          <mxGeometry x="495" y="270" width="100" height="40" as="geometry" />
        </mxCell>
        <mxCell id="Nwp9M4HmOzaoz7ELcoco-24" style="edgeStyle=orthogonalEdgeStyle;rounded=0;orthogonalLoop=1;jettySize=auto;html=1;entryX=0.5;entryY=0;entryDx=0;entryDy=0;" parent="1" source="Nwp9M4HmOzaoz7ELcoco-5" target="Nwp9M4HmOzaoz7ELcoco-2" edge="1">
          <mxGeometry relative="1" as="geometry" />
        </mxCell>
        <mxCell id="Nwp9M4HmOzaoz7ELcoco-5" value="PostID" style="ellipse;whiteSpace=wrap;html=1;align=center;fontStyle=4;" parent="1" vertex="1">
          <mxGeometry x="1230" y="300" width="100" height="40" as="geometry" />
        </mxCell>
        <mxCell id="Nwp9M4HmOzaoz7ELcoco-32" style="edgeStyle=orthogonalEdgeStyle;rounded=0;orthogonalLoop=1;jettySize=auto;html=1;entryX=1;entryY=0.5;entryDx=0;entryDy=0;" parent="1" source="Nwp9M4HmOzaoz7ELcoco-6" target="Nwp9M4HmOzaoz7ELcoco-3" edge="1">
          <mxGeometry relative="1" as="geometry" />
        </mxCell>
        <mxCell id="Nwp9M4HmOzaoz7ELcoco-6" value="CommentID" style="ellipse;whiteSpace=wrap;html=1;align=center;fontStyle=4;" parent="1" vertex="1">
          <mxGeometry x="1215" y="780.07" width="100" height="40" as="geometry" />
        </mxCell>
        <mxCell id="Nwp9M4HmOzaoz7ELcoco-21" style="edgeStyle=orthogonalEdgeStyle;rounded=0;orthogonalLoop=1;jettySize=auto;html=1;entryX=0.5;entryY=0;entryDx=0;entryDy=0;" parent="1" source="Nwp9M4HmOzaoz7ELcoco-8" target="Nwp9M4HmOzaoz7ELcoco-1" edge="1">
          <mxGeometry relative="1" as="geometry" />
        </mxCell>
        <mxCell id="Nwp9M4HmOzaoz7ELcoco-8" value="FullName" style="ellipse;whiteSpace=wrap;html=1;align=center;" parent="1" vertex="1">
          <mxGeometry x="695" y="320" width="100" height="40" as="geometry" />
        </mxCell>
        <mxCell id="Nwp9M4HmOzaoz7ELcoco-15" style="edgeStyle=orthogonalEdgeStyle;rounded=0;orthogonalLoop=1;jettySize=auto;html=1;" parent="1" source="Nwp9M4HmOzaoz7ELcoco-11" edge="1">
          <mxGeometry relative="1" as="geometry">
            <mxPoint x="745" y="320" as="targetPoint" />
          </mxGeometry>
        </mxCell>
        <mxCell id="Nwp9M4HmOzaoz7ELcoco-11" value="LastName" style="ellipse;whiteSpace=wrap;html=1;align=center;" parent="1" vertex="1">
          <mxGeometry x="745" y="210" width="100" height="40" as="geometry" />
        </mxCell>
        <mxCell id="Nwp9M4HmOzaoz7ELcoco-14" style="edgeStyle=orthogonalEdgeStyle;rounded=0;orthogonalLoop=1;jettySize=auto;html=1;entryX=0.5;entryY=0;entryDx=0;entryDy=0;" parent="1" source="Nwp9M4HmOzaoz7ELcoco-12" target="Nwp9M4HmOzaoz7ELcoco-8" edge="1">
          <mxGeometry relative="1" as="geometry" />
        </mxCell>
        <mxCell id="Nwp9M4HmOzaoz7ELcoco-12" value="FirstName" style="ellipse;whiteSpace=wrap;html=1;align=center;" parent="1" vertex="1">
          <mxGeometry x="645" y="210" width="100" height="40" as="geometry" />
        </mxCell>
        <mxCell id="Nwp9M4HmOzaoz7ELcoco-16" value="Age" style="ellipse;whiteSpace=wrap;html=1;align=center;dashed=1;" parent="1" vertex="1">
          <mxGeometry x="425" y="340" width="100" height="40" as="geometry" />
        </mxCell>
        <mxCell id="Nwp9M4HmOzaoz7ELcoco-18" style="edgeStyle=orthogonalEdgeStyle;rounded=0;orthogonalLoop=1;jettySize=auto;html=1;entryX=1;entryY=0.5;entryDx=0;entryDy=0;dashed=1;" parent="1" source="Nwp9M4HmOzaoz7ELcoco-17" target="Nwp9M4HmOzaoz7ELcoco-16" edge="1">
          <mxGeometry relative="1" as="geometry" />
        </mxCell>
        <mxCell id="Nwp9M4HmOzaoz7ELcoco-19" style="edgeStyle=orthogonalEdgeStyle;rounded=0;orthogonalLoop=1;jettySize=auto;html=1;" parent="1" source="Nwp9M4HmOzaoz7ELcoco-17" target="Nwp9M4HmOzaoz7ELcoco-1" edge="1">
          <mxGeometry relative="1" as="geometry" />
        </mxCell>
        <mxCell id="Nwp9M4HmOzaoz7ELcoco-17" value="&lt;code&gt;DateOfBirth&lt;/code&gt;" style="ellipse;whiteSpace=wrap;html=1;align=center;" parent="1" vertex="1">
          <mxGeometry x="495" y="410" width="100" height="40" as="geometry" />
        </mxCell>
        <mxCell id="Nwp9M4HmOzaoz7ELcoco-22" value="&lt;code&gt;PhoneNumbers&lt;/code&gt;" style="ellipse;shape=doubleEllipse;margin=3;whiteSpace=wrap;html=1;align=center;" parent="1" vertex="1">
          <mxGeometry x="535" y="490" width="100" height="50" as="geometry" />
        </mxCell>
        <mxCell id="Nwp9M4HmOzaoz7ELcoco-23" style="edgeStyle=orthogonalEdgeStyle;rounded=0;orthogonalLoop=1;jettySize=auto;html=1;entryX=0.37;entryY=1.05;entryDx=0;entryDy=0;entryPerimeter=0;" parent="1" source="Nwp9M4HmOzaoz7ELcoco-22" target="Nwp9M4HmOzaoz7ELcoco-1" edge="1">
          <mxGeometry relative="1" as="geometry" />
        </mxCell>
        <mxCell id="Nwp9M4HmOzaoz7ELcoco-25" value="Posts" style="shape=rhombus;perimeter=rhombusPerimeter;whiteSpace=wrap;html=1;align=center;" parent="1" vertex="1">
          <mxGeometry x="845" y="400" width="120" height="60" as="geometry" />
        </mxCell>
        <mxCell id="Nwp9M4HmOzaoz7ELcoco-26" value="" style="endArrow=none;html=1;rounded=0;entryX=1;entryY=0.5;entryDx=0;entryDy=0;exitX=0;exitY=0.5;exitDx=0;exitDy=0;" parent="1" source="Nwp9M4HmOzaoz7ELcoco-25" target="Nwp9M4HmOzaoz7ELcoco-1" edge="1">
          <mxGeometry relative="1" as="geometry">
            <mxPoint x="795" y="430" as="sourcePoint" />
            <mxPoint x="865" y="550" as="targetPoint" />
          </mxGeometry>
        </mxCell>
        <mxCell id="Nwp9M4HmOzaoz7ELcoco-27" value="1" style="resizable=0;html=1;whiteSpace=wrap;align=right;verticalAlign=bottom;" parent="Nwp9M4HmOzaoz7ELcoco-26" connectable="0" vertex="1">
          <mxGeometry x="1" relative="1" as="geometry" />
        </mxCell>
        <mxCell id="Nwp9M4HmOzaoz7ELcoco-28" value="" style="endArrow=none;html=1;rounded=0;exitX=1;exitY=0.5;exitDx=0;exitDy=0;entryX=0;entryY=0.5;entryDx=0;entryDy=0;" parent="1" source="Nwp9M4HmOzaoz7ELcoco-25" target="Nwp9M4HmOzaoz7ELcoco-2" edge="1">
          <mxGeometry relative="1" as="geometry">
            <mxPoint x="1065" y="430" as="sourcePoint" />
            <mxPoint x="1245" y="480" as="targetPoint" />
          </mxGeometry>
        </mxCell>
        <mxCell id="Nwp9M4HmOzaoz7ELcoco-29" value="N" style="resizable=0;html=1;whiteSpace=wrap;align=right;verticalAlign=bottom;" parent="Nwp9M4HmOzaoz7ELcoco-28" connectable="0" vertex="1">
          <mxGeometry x="1" relative="1" as="geometry" />
        </mxCell>
        <mxCell id="Nwp9M4HmOzaoz7ELcoco-30" value="Content" style="ellipse;whiteSpace=wrap;html=1;align=center;" parent="1" vertex="1">
          <mxGeometry x="1120" y="300" width="100" height="40" as="geometry" />
        </mxCell>
        <mxCell id="Nwp9M4HmOzaoz7ELcoco-31" style="edgeStyle=orthogonalEdgeStyle;rounded=0;orthogonalLoop=1;jettySize=auto;html=1;" parent="1" source="Nwp9M4HmOzaoz7ELcoco-30" target="Nwp9M4HmOzaoz7ELcoco-2" edge="1">
          <mxGeometry relative="1" as="geometry" />
        </mxCell>
        <mxCell id="Nwp9M4HmOzaoz7ELcoco-34" style="edgeStyle=orthogonalEdgeStyle;rounded=0;orthogonalLoop=1;jettySize=auto;html=1;entryX=0.5;entryY=1;entryDx=0;entryDy=0;" parent="1" source="Nwp9M4HmOzaoz7ELcoco-33" target="Nwp9M4HmOzaoz7ELcoco-3" edge="1">
          <mxGeometry relative="1" as="geometry" />
        </mxCell>
        <mxCell id="Nwp9M4HmOzaoz7ELcoco-33" value="Content" style="ellipse;whiteSpace=wrap;html=1;align=center;" parent="1" vertex="1">
          <mxGeometry x="1095" y="780.07" width="100" height="40" as="geometry" />
        </mxCell>
        <mxCell id="Nwp9M4HmOzaoz7ELcoco-35" value="Comments" style="shape=rhombus;perimeter=rhombusPerimeter;whiteSpace=wrap;html=1;align=center;" parent="1" vertex="1">
          <mxGeometry x="1130" y="550" width="120" height="60" as="geometry" />
        </mxCell>
        <mxCell id="Nwp9M4HmOzaoz7ELcoco-36" value="" style="endArrow=none;html=1;rounded=0;exitX=0.5;exitY=0;exitDx=0;exitDy=0;entryX=0.5;entryY=1;entryDx=0;entryDy=0;" parent="1" source="Nwp9M4HmOzaoz7ELcoco-35" target="Nwp9M4HmOzaoz7ELcoco-2" edge="1">
          <mxGeometry relative="1" as="geometry">
            <mxPoint x="855" y="440" as="sourcePoint" />
            <mxPoint x="1190" y="450" as="targetPoint" />
            <Array as="points">
              <mxPoint x="1190" y="530" />
            </Array>
          </mxGeometry>
        </mxCell>
        <mxCell id="Nwp9M4HmOzaoz7ELcoco-37" value="1" style="resizable=0;html=1;whiteSpace=wrap;align=right;verticalAlign=bottom;" parent="Nwp9M4HmOzaoz7ELcoco-36" connectable="0" vertex="1">
          <mxGeometry x="1" relative="1" as="geometry" />
        </mxCell>
        <mxCell id="Nwp9M4HmOzaoz7ELcoco-38" value="" style="endArrow=none;html=1;rounded=0;exitX=0.5;exitY=1;exitDx=0;exitDy=0;entryX=0.5;entryY=0;entryDx=0;entryDy=0;" parent="1" source="Nwp9M4HmOzaoz7ELcoco-35" target="Nwp9M4HmOzaoz7ELcoco-3" edge="1">
          <mxGeometry relative="1" as="geometry">
            <mxPoint x="1195" y="490" as="sourcePoint" />
            <mxPoint x="1270" y="490" as="targetPoint" />
          </mxGeometry>
        </mxCell>
        <mxCell id="Nwp9M4HmOzaoz7ELcoco-39" value="N" style="resizable=0;html=1;whiteSpace=wrap;align=right;verticalAlign=bottom;" parent="Nwp9M4HmOzaoz7ELcoco-38" connectable="0" vertex="1">
          <mxGeometry x="1" relative="1" as="geometry" />
        </mxCell>
        <mxCell id="Nwp9M4HmOzaoz7ELcoco-44" value="PostTag" style="shape=ext;margin=3;double=1;whiteSpace=wrap;html=1;align=center;" parent="1" vertex="1">
          <mxGeometry x="820" y="580" width="100" height="40" as="geometry" />
        </mxCell>
        <mxCell id="Nwp9M4HmOzaoz7ELcoco-46" style="edgeStyle=orthogonalEdgeStyle;rounded=0;orthogonalLoop=1;jettySize=auto;html=1;entryX=1;entryY=0.5;entryDx=0;entryDy=0;" parent="1" source="Nwp9M4HmOzaoz7ELcoco-45" target="Nwp9M4HmOzaoz7ELcoco-2" edge="1">
          <mxGeometry relative="1" as="geometry" />
        </mxCell>
        <mxCell id="Nwp9M4HmOzaoz7ELcoco-45" value="&lt;span style=&quot;border-bottom: 1px dotted&quot;&gt;UserID&lt;/span&gt;" style="ellipse;whiteSpace=wrap;html=1;align=center;" parent="1" vertex="1">
          <mxGeometry x="1305" y="410" width="100" height="40" as="geometry" />
        </mxCell>
        <mxCell id="Nwp9M4HmOzaoz7ELcoco-49" style="edgeStyle=orthogonalEdgeStyle;rounded=0;orthogonalLoop=1;jettySize=auto;html=1;exitX=0;exitY=0.5;exitDx=0;exitDy=0;entryX=1;entryY=0.25;entryDx=0;entryDy=0;" parent="1" source="Nwp9M4HmOzaoz7ELcoco-47" target="Nwp9M4HmOzaoz7ELcoco-3" edge="1">
          <mxGeometry relative="1" as="geometry" />
        </mxCell>
        <mxCell id="Nwp9M4HmOzaoz7ELcoco-47" value="&lt;span style=&quot;border-bottom: 1px dotted&quot;&gt;PostID&lt;/span&gt;" style="ellipse;whiteSpace=wrap;html=1;align=center;" parent="1" vertex="1">
          <mxGeometry x="1305" y="740.07" width="100" height="40" as="geometry" />
        </mxCell>
        <mxCell id="Nwp9M4HmOzaoz7ELcoco-55" style="edgeStyle=orthogonalEdgeStyle;rounded=0;orthogonalLoop=1;jettySize=auto;html=1;entryX=0;entryY=0.25;entryDx=0;entryDy=0;" parent="1" source="Nwp9M4HmOzaoz7ELcoco-50" target="Nwp9M4HmOzaoz7ELcoco-44" edge="1">
          <mxGeometry relative="1" as="geometry" />
        </mxCell>
        <mxCell id="Nwp9M4HmOzaoz7ELcoco-50" value="&lt;span style=&quot;border-bottom: 1px dotted&quot;&gt;PostID&lt;/span&gt;" style="ellipse;whiteSpace=wrap;html=1;align=center;" parent="1" vertex="1">
          <mxGeometry x="670" y="550" width="100" height="40" as="geometry" />
        </mxCell>
        <mxCell id="Nwp9M4HmOzaoz7ELcoco-53" value="" style="edgeStyle=orthogonalEdgeStyle;rounded=0;orthogonalLoop=1;jettySize=auto;html=1;" parent="1" source="Nwp9M4HmOzaoz7ELcoco-51" target="Nwp9M4HmOzaoz7ELcoco-44" edge="1">
          <mxGeometry relative="1" as="geometry" />
        </mxCell>
        <mxCell id="Nwp9M4HmOzaoz7ELcoco-51" value="&lt;span style=&quot;border-bottom: 1px dotted&quot;&gt;TagID&lt;/span&gt;" style="ellipse;whiteSpace=wrap;html=1;align=center;" parent="1" vertex="1">
          <mxGeometry x="670" y="600" width="100" height="40" as="geometry" />
        </mxCell>
        <mxCell id="Nwp9M4HmOzaoz7ELcoco-59" value="Tag" style="whiteSpace=wrap;html=1;align=center;" parent="1" vertex="1">
          <mxGeometry x="630" y="710" width="100" height="40" as="geometry" />
        </mxCell>
        <mxCell id="Nwp9M4HmOzaoz7ELcoco-63" style="edgeStyle=orthogonalEdgeStyle;rounded=0;orthogonalLoop=1;jettySize=auto;html=1;entryX=0;entryY=0.5;entryDx=0;entryDy=0;" parent="1" source="Nwp9M4HmOzaoz7ELcoco-62" target="Nwp9M4HmOzaoz7ELcoco-59" edge="1">
          <mxGeometry relative="1" as="geometry" />
        </mxCell>
        <mxCell id="Nwp9M4HmOzaoz7ELcoco-62" value="TagID" style="ellipse;whiteSpace=wrap;html=1;align=center;fontStyle=4;" parent="1" vertex="1">
          <mxGeometry x="475" y="710" width="100" height="40" as="geometry" />
        </mxCell>
        <mxCell id="Nwp9M4HmOzaoz7ELcoco-65" style="edgeStyle=orthogonalEdgeStyle;rounded=0;orthogonalLoop=1;jettySize=auto;html=1;entryX=0.5;entryY=1;entryDx=0;entryDy=0;" parent="1" source="Nwp9M4HmOzaoz7ELcoco-64" target="Nwp9M4HmOzaoz7ELcoco-59" edge="1">
          <mxGeometry relative="1" as="geometry" />
        </mxCell>
        <mxCell id="Nwp9M4HmOzaoz7ELcoco-64" value="Title" style="ellipse;whiteSpace=wrap;html=1;align=center;" parent="1" vertex="1">
          <mxGeometry x="630" y="800" width="100" height="40" as="geometry" />
        </mxCell>
        <mxCell id="Nwp9M4HmOzaoz7ELcoco-71" value="" style="endArrow=none;html=1;rounded=0;entryX=0;entryY=1;entryDx=0;entryDy=0;textShadow=0;labelBorderColor=none;" parent="1" target="Nwp9M4HmOzaoz7ELcoco-2" edge="1">
          <mxGeometry relative="1" as="geometry">
            <mxPoint x="985" y="450" as="sourcePoint" />
            <mxPoint x="1115" y="510" as="targetPoint" />
          </mxGeometry>
        </mxCell>
        <mxCell id="Nwp9M4HmOzaoz7ELcoco-72" value="1" style="resizable=0;html=1;whiteSpace=wrap;align=right;verticalAlign=bottom;" parent="Nwp9M4HmOzaoz7ELcoco-71" connectable="0" vertex="1">
          <mxGeometry x="1" relative="1" as="geometry" />
        </mxCell>
        <mxCell id="Nwp9M4HmOzaoz7ELcoco-76" value="" style="endArrow=none;html=1;rounded=0;entryX=1;entryY=0.5;entryDx=0;entryDy=0;" parent="1" target="Nwp9M4HmOzaoz7ELcoco-44" edge="1">
          <mxGeometry relative="1" as="geometry">
            <mxPoint x="985" y="600" as="sourcePoint" />
            <mxPoint x="985" y="780" as="targetPoint" />
          </mxGeometry>
        </mxCell>
        <mxCell id="Nwp9M4HmOzaoz7ELcoco-77" value="N" style="resizable=0;html=1;whiteSpace=wrap;align=right;verticalAlign=bottom;" parent="Nwp9M4HmOzaoz7ELcoco-76" connectable="0" vertex="1">
          <mxGeometry x="1" relative="1" as="geometry" />
        </mxCell>
        <mxCell id="Nwp9M4HmOzaoz7ELcoco-79" value="" style="endArrow=none;html=1;rounded=0;entryX=0.5;entryY=1;entryDx=0;entryDy=0;" parent="1" target="Nwp9M4HmOzaoz7ELcoco-44" edge="1">
          <mxGeometry relative="1" as="geometry">
            <mxPoint x="870" y="720" as="sourcePoint" />
            <mxPoint x="955" y="590" as="targetPoint" />
          </mxGeometry>
        </mxCell>
        <mxCell id="Nwp9M4HmOzaoz7ELcoco-80" value="N" style="resizable=0;html=1;whiteSpace=wrap;align=right;verticalAlign=bottom;" parent="Nwp9M4HmOzaoz7ELcoco-79" connectable="0" vertex="1">
          <mxGeometry x="1" relative="1" as="geometry" />
        </mxCell>
        <mxCell id="Nwp9M4HmOzaoz7ELcoco-81" value="" style="endArrow=none;html=1;rounded=0;entryX=1;entryY=0.25;entryDx=0;entryDy=0;textShadow=0;labelBorderColor=none;" parent="1" target="Nwp9M4HmOzaoz7ELcoco-59" edge="1">
          <mxGeometry relative="1" as="geometry">
            <mxPoint x="875" y="720" as="sourcePoint" />
            <mxPoint x="1150" y="460" as="targetPoint" />
          </mxGeometry>
        </mxCell>
        <mxCell id="Nwp9M4HmOzaoz7ELcoco-82" value="1" style="resizable=0;html=1;whiteSpace=wrap;align=right;verticalAlign=bottom;" parent="Nwp9M4HmOzaoz7ELcoco-81" connectable="0" vertex="1">
          <mxGeometry x="1" relative="1" as="geometry" />
        </mxCell>
        <mxCell id="Nwp9M4HmOzaoz7ELcoco-90" value="" style="endArrow=none;html=1;rounded=0;" parent="1" edge="1">
          <mxGeometry relative="1" as="geometry">
            <mxPoint x="985" y="450" as="sourcePoint" />
            <mxPoint x="985" y="600" as="targetPoint" />
          </mxGeometry>
        </mxCell>
        <mxCell id="Nwp9M4HmOzaoz7ELcoco-97" value="Posts" style="shape=rhombus;perimeter=rhombusPerimeter;whiteSpace=wrap;html=1;align=center;" parent="1" vertex="1">
          <mxGeometry x="810" y="690" width="120" height="60" as="geometry" />
        </mxCell>
        <mxCell id="Nwp9M4HmOzaoz7ELcoco-102" value="Tags" style="shape=rhombus;perimeter=rhombusPerimeter;whiteSpace=wrap;html=1;align=center;" parent="1" vertex="1">
          <mxGeometry x="925" y="490" width="120" height="60" as="geometry" />
        </mxCell>
        <mxCell id="O7mJyOBHANM5aAqLtmmL-1" value="&lt;u&gt;ٍShare&lt;/u&gt;" style="rounded=1;arcSize=10;whiteSpace=wrap;html=1;align=center;" vertex="1" parent="1">
          <mxGeometry x="980" y="40" width="100" height="40" as="geometry" />
        </mxCell>
        <mxCell id="O7mJyOBHANM5aAqLtmmL-3" style="edgeStyle=orthogonalEdgeStyle;rounded=0;orthogonalLoop=1;jettySize=auto;html=1;entryX=0.5;entryY=0;entryDx=0;entryDy=0;" edge="1" parent="1" source="O7mJyOBHANM5aAqLtmmL-2" target="O7mJyOBHANM5aAqLtmmL-1">
          <mxGeometry relative="1" as="geometry" />
        </mxCell>
        <mxCell id="O7mJyOBHANM5aAqLtmmL-2" value="ShareID" style="ellipse;whiteSpace=wrap;html=1;align=center;fontStyle=4;" vertex="1" parent="1">
          <mxGeometry x="1105" y="-30" width="100" height="40" as="geometry" />
        </mxCell>
        <mxCell id="O7mJyOBHANM5aAqLtmmL-4" value="PostShare" style="shape=ext;margin=3;double=1;whiteSpace=wrap;html=1;align=center;" vertex="1" parent="1">
          <mxGeometry x="980" y="205" width="100" height="40" as="geometry" />
        </mxCell>
        <mxCell id="O7mJyOBHANM5aAqLtmmL-7" style="edgeStyle=orthogonalEdgeStyle;rounded=0;orthogonalLoop=1;jettySize=auto;html=1;entryX=1;entryY=0.5;entryDx=0;entryDy=0;" edge="1" parent="1" source="O7mJyOBHANM5aAqLtmmL-5" target="O7mJyOBHANM5aAqLtmmL-4">
          <mxGeometry relative="1" as="geometry" />
        </mxCell>
        <mxCell id="O7mJyOBHANM5aAqLtmmL-5" value="&lt;span style=&quot;border-bottom: 1px dotted&quot;&gt;PostID&lt;/span&gt;" style="ellipse;whiteSpace=wrap;html=1;align=center;" vertex="1" parent="1">
          <mxGeometry x="1135" y="180" width="100" height="40" as="geometry" />
        </mxCell>
        <mxCell id="O7mJyOBHANM5aAqLtmmL-8" style="edgeStyle=orthogonalEdgeStyle;rounded=0;orthogonalLoop=1;jettySize=auto;html=1;entryX=1;entryY=0.5;entryDx=0;entryDy=0;" edge="1" parent="1" source="O7mJyOBHANM5aAqLtmmL-6" target="O7mJyOBHANM5aAqLtmmL-4">
          <mxGeometry relative="1" as="geometry" />
        </mxCell>
        <mxCell id="O7mJyOBHANM5aAqLtmmL-6" value="&lt;span style=&quot;border-bottom: 1px dotted&quot;&gt;UserID&lt;/span&gt;" style="ellipse;whiteSpace=wrap;html=1;align=center;" vertex="1" parent="1">
          <mxGeometry x="1135" y="230" width="100" height="40" as="geometry" />
        </mxCell>
        <mxCell id="O7mJyOBHANM5aAqLtmmL-10" value="Posts" style="shape=rhombus;perimeter=rhombusPerimeter;whiteSpace=wrap;html=1;align=center;" vertex="1" parent="1">
          <mxGeometry x="982.5" y="120" width="95" height="50" as="geometry" />
        </mxCell>
        <mxCell id="O7mJyOBHANM5aAqLtmmL-11" value="" style="endArrow=none;html=1;rounded=0;entryX=0.5;entryY=1;entryDx=0;entryDy=0;textShadow=0;labelBorderColor=none;exitX=0.5;exitY=0;exitDx=0;exitDy=0;" edge="1" parent="1" source="O7mJyOBHANM5aAqLtmmL-10" target="O7mJyOBHANM5aAqLtmmL-1">
          <mxGeometry relative="1" as="geometry">
            <mxPoint x="995" y="460" as="sourcePoint" />
            <mxPoint x="1150" y="460" as="targetPoint" />
          </mxGeometry>
        </mxCell>
        <mxCell id="O7mJyOBHANM5aAqLtmmL-12" value="1" style="resizable=0;html=1;whiteSpace=wrap;align=right;verticalAlign=bottom;" connectable="0" vertex="1" parent="O7mJyOBHANM5aAqLtmmL-11">
          <mxGeometry x="1" relative="1" as="geometry" />
        </mxCell>
        <mxCell id="O7mJyOBHANM5aAqLtmmL-13" value="" style="endArrow=none;html=1;rounded=0;entryX=0.5;entryY=0;entryDx=0;entryDy=0;exitX=0.5;exitY=1;exitDx=0;exitDy=0;" edge="1" parent="1" source="O7mJyOBHANM5aAqLtmmL-10" target="O7mJyOBHANM5aAqLtmmL-4">
          <mxGeometry relative="1" as="geometry">
            <mxPoint x="995" y="610" as="sourcePoint" />
            <mxPoint x="930" y="610" as="targetPoint" />
          </mxGeometry>
        </mxCell>
        <mxCell id="O7mJyOBHANM5aAqLtmmL-14" value="N" style="resizable=0;html=1;whiteSpace=wrap;align=right;verticalAlign=bottom;" connectable="0" vertex="1" parent="O7mJyOBHANM5aAqLtmmL-13">
          <mxGeometry x="1" relative="1" as="geometry" />
        </mxCell>
        <mxCell id="O7mJyOBHANM5aAqLtmmL-15" value="" style="endArrow=none;html=1;rounded=0;entryX=0.5;entryY=1;entryDx=0;entryDy=0;" edge="1" parent="1" target="O7mJyOBHANM5aAqLtmmL-4">
          <mxGeometry relative="1" as="geometry">
            <mxPoint x="1030" y="300" as="sourcePoint" />
            <mxPoint x="880" y="630" as="targetPoint" />
          </mxGeometry>
        </mxCell>
        <mxCell id="O7mJyOBHANM5aAqLtmmL-16" value="N" style="resizable=0;html=1;whiteSpace=wrap;align=right;verticalAlign=bottom;" connectable="0" vertex="1" parent="O7mJyOBHANM5aAqLtmmL-15">
          <mxGeometry x="1" relative="1" as="geometry" />
        </mxCell>
        <mxCell id="O7mJyOBHANM5aAqLtmmL-40" value="N" style="resizable=0;html=1;whiteSpace=wrap;align=right;verticalAlign=bottom;" connectable="0" vertex="1" parent="O7mJyOBHANM5aAqLtmmL-15">
          <mxGeometry x="1" relative="1" as="geometry">
            <mxPoint x="430" y="430" as="offset" />
          </mxGeometry>
        </mxCell>
        <mxCell id="O7mJyOBHANM5aAqLtmmL-19" value="" style="edgeStyle=orthogonalEdgeStyle;rounded=0;orthogonalLoop=1;jettySize=auto;html=1;exitX=0.5;exitY=0;exitDx=0;exitDy=0;" edge="1" parent="1" source="O7mJyOBHANM5aAqLtmmL-17" target="O7mJyOBHANM5aAqLtmmL-4">
          <mxGeometry relative="1" as="geometry" />
        </mxCell>
        <mxCell id="O7mJyOBHANM5aAqLtmmL-17" value="shares" style="shape=rhombus;perimeter=rhombusPerimeter;whiteSpace=wrap;html=1;align=center;" vertex="1" parent="1">
          <mxGeometry x="982.5" y="295" width="95" height="50" as="geometry" />
        </mxCell>
        <mxCell id="O7mJyOBHANM5aAqLtmmL-23" value="" style="endArrow=none;html=1;rounded=0;exitX=0.5;exitY=1;exitDx=0;exitDy=0;" edge="1" parent="1" source="O7mJyOBHANM5aAqLtmmL-17">
          <mxGeometry relative="1" as="geometry">
            <mxPoint x="960" y="390" as="sourcePoint" />
            <mxPoint x="1030" y="400" as="targetPoint" />
          </mxGeometry>
        </mxCell>
        <mxCell id="O7mJyOBHANM5aAqLtmmL-24" value="" style="endArrow=none;html=1;rounded=0;textShadow=0;labelBorderColor=none;entryX=0.25;entryY=0;entryDx=0;entryDy=0;" edge="1" parent="1" target="Nwp9M4HmOzaoz7ELcoco-2">
          <mxGeometry relative="1" as="geometry">
            <mxPoint x="1030" y="400" as="sourcePoint" />
            <mxPoint x="1170" y="400" as="targetPoint" />
          </mxGeometry>
        </mxCell>
        <mxCell id="O7mJyOBHANM5aAqLtmmL-25" value="1" style="resizable=0;html=1;whiteSpace=wrap;align=right;verticalAlign=bottom;" connectable="0" vertex="1" parent="O7mJyOBHANM5aAqLtmmL-24">
          <mxGeometry x="1" relative="1" as="geometry" />
        </mxCell>
        <mxCell id="O7mJyOBHANM5aAqLtmmL-27" value="&lt;u&gt;Mention&lt;/u&gt;" style="rounded=1;arcSize=10;whiteSpace=wrap;html=1;align=center;" vertex="1" parent="1">
          <mxGeometry x="1410" y="470" width="100" height="40" as="geometry" />
        </mxCell>
        <mxCell id="O7mJyOBHANM5aAqLtmmL-28" style="edgeStyle=orthogonalEdgeStyle;rounded=0;orthogonalLoop=1;jettySize=auto;html=1;entryX=0.5;entryY=0;entryDx=0;entryDy=0;" edge="1" source="O7mJyOBHANM5aAqLtmmL-29" target="O7mJyOBHANM5aAqLtmmL-27" parent="1">
          <mxGeometry relative="1" as="geometry" />
        </mxCell>
        <mxCell id="O7mJyOBHANM5aAqLtmmL-29" value="MentionID" style="ellipse;whiteSpace=wrap;html=1;align=center;fontStyle=4;" vertex="1" parent="1">
          <mxGeometry x="1535" y="400" width="100" height="40" as="geometry" />
        </mxCell>
        <mxCell id="O7mJyOBHANM5aAqLtmmL-30" value="PostMention" style="shape=ext;margin=3;double=1;whiteSpace=wrap;html=1;align=center;" vertex="1" parent="1">
          <mxGeometry x="1410" y="635" width="100" height="40" as="geometry" />
        </mxCell>
        <mxCell id="O7mJyOBHANM5aAqLtmmL-31" style="edgeStyle=orthogonalEdgeStyle;rounded=0;orthogonalLoop=1;jettySize=auto;html=1;entryX=1;entryY=0.5;entryDx=0;entryDy=0;" edge="1" source="O7mJyOBHANM5aAqLtmmL-32" target="O7mJyOBHANM5aAqLtmmL-30" parent="1">
          <mxGeometry relative="1" as="geometry" />
        </mxCell>
        <mxCell id="O7mJyOBHANM5aAqLtmmL-32" value="&lt;span style=&quot;border-bottom: 1px dotted&quot;&gt;PostID&lt;/span&gt;" style="ellipse;whiteSpace=wrap;html=1;align=center;" vertex="1" parent="1">
          <mxGeometry x="1565" y="610" width="100" height="40" as="geometry" />
        </mxCell>
        <mxCell id="O7mJyOBHANM5aAqLtmmL-33" style="edgeStyle=orthogonalEdgeStyle;rounded=0;orthogonalLoop=1;jettySize=auto;html=1;entryX=1;entryY=0.5;entryDx=0;entryDy=0;" edge="1" source="O7mJyOBHANM5aAqLtmmL-34" target="O7mJyOBHANM5aAqLtmmL-30" parent="1">
          <mxGeometry relative="1" as="geometry" />
        </mxCell>
        <mxCell id="O7mJyOBHANM5aAqLtmmL-34" value="&lt;span style=&quot;text-decoration-line: underline;&quot;&gt;UserId&lt;/span&gt;" style="ellipse;whiteSpace=wrap;html=1;align=center;" vertex="1" parent="1">
          <mxGeometry x="1565" y="660" width="100" height="40" as="geometry" />
        </mxCell>
        <mxCell id="O7mJyOBHANM5aAqLtmmL-35" value="Posts" style="shape=rhombus;perimeter=rhombusPerimeter;whiteSpace=wrap;html=1;align=center;" vertex="1" parent="1">
          <mxGeometry x="1412.5" y="550" width="95" height="50" as="geometry" />
        </mxCell>
        <mxCell id="O7mJyOBHANM5aAqLtmmL-36" value="" style="endArrow=none;html=1;rounded=0;entryX=0.5;entryY=1;entryDx=0;entryDy=0;textShadow=0;labelBorderColor=none;exitX=0.5;exitY=0;exitDx=0;exitDy=0;" edge="1" source="O7mJyOBHANM5aAqLtmmL-35" target="O7mJyOBHANM5aAqLtmmL-27" parent="1">
          <mxGeometry relative="1" as="geometry">
            <mxPoint x="1425" y="890" as="sourcePoint" />
            <mxPoint x="1580" y="890" as="targetPoint" />
          </mxGeometry>
        </mxCell>
        <mxCell id="O7mJyOBHANM5aAqLtmmL-37" value="1" style="resizable=0;html=1;whiteSpace=wrap;align=right;verticalAlign=bottom;" connectable="0" vertex="1" parent="O7mJyOBHANM5aAqLtmmL-36">
          <mxGeometry x="1" relative="1" as="geometry" />
        </mxCell>
        <mxCell id="O7mJyOBHANM5aAqLtmmL-38" value="" style="endArrow=none;html=1;rounded=0;entryX=0.5;entryY=0;entryDx=0;entryDy=0;exitX=0.5;exitY=1;exitDx=0;exitDy=0;" edge="1" source="O7mJyOBHANM5aAqLtmmL-35" target="O7mJyOBHANM5aAqLtmmL-30" parent="1">
          <mxGeometry relative="1" as="geometry">
            <mxPoint x="1425" y="1040" as="sourcePoint" />
            <mxPoint x="1360" y="1040" as="targetPoint" />
          </mxGeometry>
        </mxCell>
        <mxCell id="O7mJyOBHANM5aAqLtmmL-39" value="N" style="resizable=0;html=1;whiteSpace=wrap;align=right;verticalAlign=bottom;" connectable="0" vertex="1" parent="O7mJyOBHANM5aAqLtmmL-38">
          <mxGeometry x="1" relative="1" as="geometry" />
        </mxCell>
        <mxCell id="O7mJyOBHANM5aAqLtmmL-41" value="Mentions" style="shape=rhombus;perimeter=rhombusPerimeter;whiteSpace=wrap;html=1;align=center;" vertex="1" parent="1">
          <mxGeometry x="1290" y="555" width="95" height="50" as="geometry" />
        </mxCell>
        <mxCell id="O7mJyOBHANM5aAqLtmmL-42" value="" style="endArrow=none;html=1;rounded=0;exitX=0.5;exitY=1;exitDx=0;exitDy=0;" edge="1" source="O7mJyOBHANM5aAqLtmmL-41" parent="1">
          <mxGeometry relative="1" as="geometry">
            <mxPoint x="1267.5" y="642.5" as="sourcePoint" />
            <mxPoint x="1340" y="650" as="targetPoint" />
          </mxGeometry>
        </mxCell>
        <mxCell id="O7mJyOBHANM5aAqLtmmL-44" value="" style="endArrow=none;html=1;rounded=0;entryX=-0.005;entryY=0.384;entryDx=0;entryDy=0;entryPerimeter=0;" edge="1" parent="1" target="O7mJyOBHANM5aAqLtmmL-30">
          <mxGeometry relative="1" as="geometry">
            <mxPoint x="1340" y="650" as="sourcePoint" />
            <mxPoint x="880" y="630" as="targetPoint" />
          </mxGeometry>
        </mxCell>
        <mxCell id="O7mJyOBHANM5aAqLtmmL-45" value="N" style="resizable=0;html=1;whiteSpace=wrap;align=right;verticalAlign=bottom;" connectable="0" vertex="1" parent="O7mJyOBHANM5aAqLtmmL-44">
          <mxGeometry x="1" relative="1" as="geometry" />
        </mxCell>
        <mxCell id="O7mJyOBHANM5aAqLtmmL-48" value="" style="endArrow=none;html=1;rounded=0;entryX=0.5;entryY=0;entryDx=0;entryDy=0;" edge="1" parent="1" target="O7mJyOBHANM5aAqLtmmL-41">
          <mxGeometry relative="1" as="geometry">
            <mxPoint x="1338" y="480" as="sourcePoint" />
            <mxPoint x="1040" y="410" as="targetPoint" />
          </mxGeometry>
        </mxCell>
        <mxCell id="O7mJyOBHANM5aAqLtmmL-49" value="" style="endArrow=none;html=1;rounded=0;textShadow=0;labelBorderColor=none;entryX=0.75;entryY=1;entryDx=0;entryDy=0;" edge="1" parent="1" target="Nwp9M4HmOzaoz7ELcoco-2">
          <mxGeometry relative="1" as="geometry">
            <mxPoint x="1340" y="480" as="sourcePoint" />
            <mxPoint x="1175" y="420" as="targetPoint" />
          </mxGeometry>
        </mxCell>
        <mxCell id="O7mJyOBHANM5aAqLtmmL-50" value="1" style="resizable=0;html=1;whiteSpace=wrap;align=right;verticalAlign=bottom;" connectable="0" vertex="1" parent="O7mJyOBHANM5aAqLtmmL-49">
          <mxGeometry x="1" relative="1" as="geometry" />
        </mxCell>
        <mxCell id="O7mJyOBHANM5aAqLtmmL-53" value="User" style="swimlane;childLayout=stackLayout;horizontal=1;startSize=40;horizontalStack=0;rounded=1;fontSize=14;fontStyle=0;strokeWidth=2;resizeParent=0;resizeLast=1;shadow=0;dashed=0;align=center;arcSize=4;whiteSpace=wrap;html=1;" vertex="1" parent="1">
          <mxGeometry x="206.25" y="-560" width="385" height="200" as="geometry" />
        </mxCell>
        <mxCell id="O7mJyOBHANM5aAqLtmmL-54" value="+ Id: String&amp;nbsp;&lt;div&gt;+ Email: String&lt;/div&gt;&lt;div&gt;+ Password: String&lt;/div&gt;&lt;div&gt;+ FullName: String&lt;br&gt;+ DateOfBirth: Date&lt;br&gt;+ PhoneNumbers: String&lt;br&gt;&lt;div&gt;&lt;span style=&quot;background-color: transparent; color: light-dark(rgb(0, 0, 0), rgb(255, 255, 255));&quot;&gt;+ Register(Email, Password, FullName, DateOfBirth, PhoneNumbers)&lt;br&gt;&lt;/span&gt;+ Login(Email, Password)&lt;/div&gt;&lt;div&gt;+ ForgotPassword(Email)&lt;/div&gt;&lt;div&gt;+ SendOTP(Email)&lt;/div&gt;&lt;div&gt;&lt;br&gt;&lt;br&gt;&lt;/div&gt;&lt;/div&gt;" style="align=left;strokeColor=none;fillColor=none;spacingLeft=4;fontSize=12;verticalAlign=top;resizable=0;rotatable=0;part=1;html=1;" vertex="1" parent="O7mJyOBHANM5aAqLtmmL-53">
          <mxGeometry y="40" width="385" height="160" as="geometry" />
        </mxCell>
        <mxCell id="O7mJyOBHANM5aAqLtmmL-55" value="" style="endArrow=none;html=1;rounded=0;entryX=0.997;entryY=0.543;entryDx=0;entryDy=0;entryPerimeter=0;" edge="1" parent="O7mJyOBHANM5aAqLtmmL-53" target="O7mJyOBHANM5aAqLtmmL-54">
          <mxGeometry relative="1" as="geometry">
            <mxPoint y="130" as="sourcePoint" />
            <mxPoint x="160" y="130" as="targetPoint" />
          </mxGeometry>
        </mxCell>
        <mxCell id="O7mJyOBHANM5aAqLtmmL-57" value="Email" style="ellipse;whiteSpace=wrap;html=1;align=center;" vertex="1" parent="1">
          <mxGeometry x="640" y="490" width="100" height="40" as="geometry" />
        </mxCell>
        <mxCell id="O7mJyOBHANM5aAqLtmmL-58" style="edgeStyle=orthogonalEdgeStyle;rounded=0;orthogonalLoop=1;jettySize=auto;html=1;entryX=0.457;entryY=1.053;entryDx=0;entryDy=0;entryPerimeter=0;" edge="1" parent="1" source="O7mJyOBHANM5aAqLtmmL-57" target="Nwp9M4HmOzaoz7ELcoco-1">
          <mxGeometry relative="1" as="geometry" />
        </mxCell>
        <mxCell id="O7mJyOBHANM5aAqLtmmL-59" value="Password" style="ellipse;whiteSpace=wrap;html=1;align=center;" vertex="1" parent="1">
          <mxGeometry x="740" y="470" width="100" height="40" as="geometry" />
        </mxCell>
        <mxCell id="O7mJyOBHANM5aAqLtmmL-61" style="edgeStyle=orthogonalEdgeStyle;rounded=0;orthogonalLoop=1;jettySize=auto;html=1;entryX=0.939;entryY=0.966;entryDx=0;entryDy=0;entryPerimeter=0;" edge="1" parent="1" source="O7mJyOBHANM5aAqLtmmL-59" target="Nwp9M4HmOzaoz7ELcoco-1">
          <mxGeometry relative="1" as="geometry" />
        </mxCell>
        <mxCell id="O7mJyOBHANM5aAqLtmmL-63" value="&lt;p style=&quot;margin:0px;margin-top:4px;text-align:center;&quot;&gt;&lt;b&gt;Post&lt;/b&gt;&lt;/p&gt;&lt;hr size=&quot;1&quot; style=&quot;border-style:solid;&quot;&gt;&lt;p style=&quot;margin:0px;margin-left:4px;&quot;&gt;+ Id: String&lt;/p&gt;&lt;p style=&quot;margin:0px;margin-left:4px;&quot;&gt;+ Content: String&lt;/p&gt;&lt;hr size=&quot;1&quot; style=&quot;border-style:solid;&quot;&gt;&lt;p style=&quot;margin:0px;margin-left:4px;&quot;&gt;+ CreatePost(UserId, Content)&lt;br&gt;+ GetPostTags(PostId)&lt;br&gt;+ GetPostComments(PostId)&lt;/p&gt;&lt;p style=&quot;margin:0px;margin-left:4px;&quot;&gt;+ GetPostShares(PostId)&lt;/p&gt;&lt;p style=&quot;margin:0px;margin-left:4px;&quot;&gt;+ GetPostMentions(PostId)&lt;/p&gt;" style="verticalAlign=top;align=left;overflow=fill;html=1;whiteSpace=wrap;" vertex="1" parent="1">
          <mxGeometry x="1095" y="-540" width="172.5" height="150" as="geometry" />
        </mxCell>
        <mxCell id="O7mJyOBHANM5aAqLtmmL-64" value="&lt;p style=&quot;margin:0px;margin-top:4px;text-align:center;&quot;&gt;&lt;b&gt;Comment&lt;/b&gt;&lt;/p&gt;&lt;hr size=&quot;1&quot; style=&quot;border-style:solid;&quot;&gt;&lt;p style=&quot;margin:0px;margin-left:4px;&quot;&gt;+ Id: String&lt;/p&gt;&lt;p style=&quot;margin:0px;margin-left:4px;&quot;&gt;+ PostId: String&lt;/p&gt;&lt;p style=&quot;margin:0px;margin-left:4px;&quot;&gt;+ Content: String&lt;/p&gt;&lt;hr size=&quot;1&quot; style=&quot;border-style:solid;&quot;&gt;&lt;p style=&quot;margin:0px;margin-left:4px;&quot;&gt;+ AddComment(PostId, Content)&lt;/p&gt;" style="verticalAlign=top;align=left;overflow=fill;html=1;whiteSpace=wrap;" vertex="1" parent="1">
          <mxGeometry x="1095" y="-290" width="210" height="110" as="geometry" />
        </mxCell>
        <mxCell id="O7mJyOBHANM5aAqLtmmL-81" style="edgeStyle=orthogonalEdgeStyle;rounded=0;orthogonalLoop=1;jettySize=auto;html=1;entryX=0;entryY=0.5;entryDx=0;entryDy=0;" edge="1" parent="1" source="O7mJyOBHANM5aAqLtmmL-65" target="O7mJyOBHANM5aAqLtmmL-63">
          <mxGeometry relative="1" as="geometry" />
        </mxCell>
        <mxCell id="O7mJyOBHANM5aAqLtmmL-65" value="&lt;p style=&quot;margin:0px;margin-top:4px;text-align:center;&quot;&gt;&lt;b&gt;Tag&lt;/b&gt;&lt;/p&gt;&lt;hr size=&quot;1&quot; style=&quot;border-style:solid;&quot;&gt;&lt;p style=&quot;margin:0px;margin-left:4px;&quot;&gt;+ Id: String&lt;/p&gt;&lt;p style=&quot;margin:0px;margin-left:4px;&quot;&gt;+ Title: String&lt;/p&gt;&lt;hr size=&quot;1&quot; style=&quot;border-style:solid;&quot;&gt;&lt;p style=&quot;margin:0px;margin-left:4px;&quot;&gt;+ AttachTagToPost(TagId, PostId)&lt;br&gt;+ GetPostsByTag(TagId)&lt;/p&gt;" style="verticalAlign=top;align=left;overflow=fill;html=1;whiteSpace=wrap;" vertex="1" parent="1">
          <mxGeometry x="386.25" y="-300" width="210" height="110" as="geometry" />
        </mxCell>
        <mxCell id="O7mJyOBHANM5aAqLtmmL-67" value="&lt;p style=&quot;margin:0px;margin-top:4px;text-align:center;&quot;&gt;&lt;b&gt;Share&lt;/b&gt;&lt;/p&gt;&lt;hr size=&quot;1&quot; style=&quot;border-style:solid;&quot;&gt;&lt;p style=&quot;margin:0px;margin-left:4px;&quot;&gt;+ Id: String&lt;/p&gt;&lt;p style=&quot;margin:0px;margin-left:4px;&quot;&gt;+ Title: String&lt;/p&gt;&lt;hr size=&quot;1&quot; style=&quot;border-style:solid;&quot;&gt;&lt;p style=&quot;margin:0px;margin-left:4px;&quot;&gt;+ ShareToPost(UserId, PostId)&amp;nbsp;&lt;br&gt;+ GetUserShares(UserId)&lt;br&gt;&lt;br&gt;&lt;/p&gt;" style="verticalAlign=top;align=left;overflow=fill;html=1;whiteSpace=wrap;" vertex="1" parent="1">
          <mxGeometry x="1091.25" y="-740" width="210" height="110" as="geometry" />
        </mxCell>
        <mxCell id="O7mJyOBHANM5aAqLtmmL-85" style="edgeStyle=orthogonalEdgeStyle;rounded=0;orthogonalLoop=1;jettySize=auto;html=1;entryX=-0.004;entryY=0.678;entryDx=0;entryDy=0;entryPerimeter=0;" edge="1" parent="1" source="O7mJyOBHANM5aAqLtmmL-68" target="O7mJyOBHANM5aAqLtmmL-63">
          <mxGeometry relative="1" as="geometry">
            <mxPoint x="1016.25" y="-360" as="targetPoint" />
          </mxGeometry>
        </mxCell>
        <mxCell id="O7mJyOBHANM5aAqLtmmL-68" value="&lt;p style=&quot;margin:0px;margin-top:4px;text-align:center;&quot;&gt;&lt;b&gt;Mention&lt;/b&gt;&lt;/p&gt;&lt;hr size=&quot;1&quot; style=&quot;border-style:solid;&quot;&gt;&lt;p style=&quot;margin:0px;margin-left:4px;&quot;&gt;+ Id: String&lt;/p&gt;&lt;p style=&quot;margin:0px;margin-left:4px;&quot;&gt;+ Title: String&lt;/p&gt;&lt;hr size=&quot;1&quot; style=&quot;border-style:solid;&quot;&gt;&lt;p style=&quot;margin:0px;margin-left:4px;&quot;&gt;+ Mention(PostId, UserId)&lt;br&gt;+ GetUserMentions(UserId)&lt;br&gt;+ GetMentionsOnPost(PostId)&lt;/p&gt;" style="verticalAlign=top;align=left;overflow=fill;html=1;whiteSpace=wrap;" vertex="1" parent="1">
          <mxGeometry x="386.25" y="-170" width="210" height="120" as="geometry" />
        </mxCell>
        <mxCell id="O7mJyOBHANM5aAqLtmmL-72" style="edgeStyle=orthogonalEdgeStyle;rounded=0;orthogonalLoop=1;jettySize=auto;html=1;entryX=0;entryY=0.25;entryDx=0;entryDy=0;" edge="1" parent="1" source="O7mJyOBHANM5aAqLtmmL-54" target="O7mJyOBHANM5aAqLtmmL-63">
          <mxGeometry relative="1" as="geometry">
            <mxPoint x="1076.25" y="-440" as="targetPoint" />
            <Array as="points" />
          </mxGeometry>
        </mxCell>
        <mxCell id="O7mJyOBHANM5aAqLtmmL-73" value="1..*" style="text;html=1;align=center;verticalAlign=middle;resizable=0;points=[];autosize=1;strokeColor=none;fillColor=none;fontSize=16;fontStyle=1" vertex="1" parent="1">
          <mxGeometry x="1045" y="-530" width="50" height="30" as="geometry" />
        </mxCell>
        <mxCell id="O7mJyOBHANM5aAqLtmmL-74" value="1" style="text;html=1;align=center;verticalAlign=middle;resizable=0;points=[];autosize=1;strokeColor=none;fillColor=none;fontSize=16;fontStyle=1" vertex="1" parent="1">
          <mxGeometry x="591.25" y="-472" width="30" height="30" as="geometry" />
        </mxCell>
        <mxCell id="O7mJyOBHANM5aAqLtmmL-75" style="edgeStyle=orthogonalEdgeStyle;rounded=0;orthogonalLoop=1;jettySize=auto;html=1;entryX=0.412;entryY=0.016;entryDx=0;entryDy=0;entryPerimeter=0;" edge="1" parent="1" source="O7mJyOBHANM5aAqLtmmL-63" target="O7mJyOBHANM5aAqLtmmL-64">
          <mxGeometry relative="1" as="geometry" />
        </mxCell>
        <mxCell id="O7mJyOBHANM5aAqLtmmL-76" value="1&lt;div&gt;&lt;br&gt;&lt;/div&gt;" style="text;html=1;align=center;verticalAlign=middle;resizable=0;points=[];autosize=1;strokeColor=none;fillColor=none;fontSize=16;fontStyle=1" vertex="1" parent="1">
          <mxGeometry x="1181.25" y="-395" width="30" height="50" as="geometry" />
        </mxCell>
        <mxCell id="O7mJyOBHANM5aAqLtmmL-77" value="1..*" style="text;html=1;align=center;verticalAlign=middle;resizable=0;points=[];autosize=1;strokeColor=none;fillColor=none;fontSize=16;fontStyle=1" vertex="1" parent="1">
          <mxGeometry x="1171.25" y="-322" width="50" height="30" as="geometry" />
        </mxCell>
        <mxCell id="O7mJyOBHANM5aAqLtmmL-78" style="edgeStyle=orthogonalEdgeStyle;rounded=0;orthogonalLoop=1;jettySize=auto;html=1;entryX=0.423;entryY=0.964;entryDx=0;entryDy=0;entryPerimeter=0;endArrow=classic;endFill=1;startArrow=classic;startFill=1;" edge="1" parent="1" source="O7mJyOBHANM5aAqLtmmL-63" target="O7mJyOBHANM5aAqLtmmL-67">
          <mxGeometry relative="1" as="geometry" />
        </mxCell>
        <mxCell id="O7mJyOBHANM5aAqLtmmL-79" value="*" style="text;html=1;align=center;verticalAlign=middle;resizable=0;points=[];autosize=1;strokeColor=none;fillColor=none;fontSize=16;fontStyle=1" vertex="1" parent="1">
          <mxGeometry x="1151.25" y="-632" width="30" height="30" as="geometry" />
        </mxCell>
        <mxCell id="O7mJyOBHANM5aAqLtmmL-80" value="*" style="text;html=1;align=center;verticalAlign=middle;resizable=0;points=[];autosize=1;strokeColor=none;fillColor=none;fontSize=16;fontStyle=1" vertex="1" parent="1">
          <mxGeometry x="1151.25" y="-572" width="30" height="30" as="geometry" />
        </mxCell>
        <mxCell id="O7mJyOBHANM5aAqLtmmL-82" value="*" style="text;html=1;align=center;verticalAlign=middle;resizable=0;points=[];autosize=1;strokeColor=none;fillColor=none;strokeWidth=1;fontSize=16;fontStyle=1" vertex="1" parent="1">
          <mxGeometry x="601.25" y="-282" width="30" height="30" as="geometry" />
        </mxCell>
        <mxCell id="O7mJyOBHANM5aAqLtmmL-83" value="*" style="text;html=1;align=center;verticalAlign=middle;resizable=0;points=[];autosize=1;strokeColor=none;fillColor=none;fontSize=16;fontStyle=1" vertex="1" parent="1">
          <mxGeometry x="1055" y="-490" width="30" height="30" as="geometry" />
        </mxCell>
        <mxCell id="O7mJyOBHANM5aAqLtmmL-87" value="*" style="text;html=1;align=center;verticalAlign=middle;resizable=0;points=[];autosize=1;strokeColor=none;fillColor=none;fontSize=16;fontStyle=1" vertex="1" parent="1">
          <mxGeometry x="1065" y="-442" width="30" height="30" as="geometry" />
        </mxCell>
        <mxCell id="O7mJyOBHANM5aAqLtmmL-88" value="*" style="text;html=1;align=center;verticalAlign=middle;resizable=0;points=[];autosize=1;strokeColor=none;fillColor=none;strokeWidth=1;fontSize=16;fontStyle=1" vertex="1" parent="1">
          <mxGeometry x="601.25" y="-140" width="30" height="30" as="geometry" />
        </mxCell>
      </root>
    </mxGraphModel>
  </diagram>
</mxfile>
